<svg width="24" height="24" viewBox="0 0 24 24" fill="none" xmlns="http://www.w3.org/2000/svg">
<path d="M18.7136 18.5656C19.0868 18.1793 19.0955 17.5526 18.7136 17.1834L13.4022 11.9207L18.7136 6.6666C19.0955 6.29744 19.0955 5.66214 18.7136 5.28439C18.3231 4.91523 17.6895 4.90665 17.3163 5.27581L11.9962 10.5385L6.68478 5.27581C6.32027 4.91523 5.66068 4.89806 5.28749 5.28439C4.90563 5.66214 4.91431 6.30602 5.27882 6.6666L10.5989 11.9207L5.27882 17.1834C4.91431 17.544 4.89695 18.1879 5.28749 18.5656C5.66936 18.9434 6.32027 18.9348 6.68478 18.5742L11.9962 13.3115L17.3163 18.5742C17.6895 18.9434 18.3317 18.9434 18.7136 18.5656Z" fill="#AAAAAA"/>
</svg>
